	<svg xmlns="http://www.w3.org/2000/svg" xmlns:xlink="http://www.w3.org/1999/xlink">
		<defs>
			<path d="M32.93.758a2.67 2.67 0 0 0-2.348 2.188l-4.898 
			27.17c-.07.397-.635.418-.735.027l-4.83-16.361a1.538 1.538 
			0 0 0-1.61-1.15l-4.844 1.08a1.538 1.538 0 0 0-1.371 1.15L7.68 
			30.532c-.081.317-.537.307-.604-.015L5.026 19.89 0 20.854 3.998 
			39.54h6.698l5.148-18.615c.133-.543.906-.543 1.04 0L22.03 
			39.54h6.698l.895-4.628L36.18.18l-3.25.578z" id="a"/>
		</defs>
		<use xlink:href="#a" transform="translate(0 .05)" fill-rule="evenodd"/>
	</svg>