<?xml version="1.0" standalone="no"?>
<!DOCTYPE svg PUBLIC "-//W3C//DTD SVG 20010904//EN"
 "http://www.w3.org/TR/2001/REC-SVG-20010904/DTD/svg10.dtd">
<svg version="1.0" xmlns="http://www.w3.org/2000/svg"
 width="2068.000000pt" height="2068.000000pt" viewBox="0 0 2068.000000 2068.000000"
 preserveAspectRatio="xMidYMid meet">
<metadata>
Created by potrace 1.11, written by Peter Selinger 2001-2013
</metadata>
<g transform="translate(0.000000,2068.000000) scale(0.100000,-0.100000)"
fill="#000000" stroke="none">
<path d="M9968 20375 c-2 -1 -55 -6 -118 -9 -109 -6 -171 -12 -196 -21 -9 -3
-11 -109 -9 -402 8 -894 16 -1896 20 -2343 2 -261 7 -785 10 -1165 12 -1375
26 -2954 30 -3330 1 -189 -1 -244 -16 -310 -9 -44 -20 -93 -23 -110 -14 -84
-82 -385 -88 -390 -3 -3 -6 106 -7 242 -1 136 -4 408 -6 603 -2 195 -6 605
-10 910 -3 305 -8 742 -10 970 -8 771 -15 1463 -20 1905 -3 242 -7 636 -10
875 -4 407 -11 1080 -20 1860 -2 184 -4 370 -5 412 0 68 -2 76 -17 74 -10 -2
-40 -7 -68 -10 -27 -4 -88 -13 -135 -21 -77 -13 -105 -17 -197 -30 -57 -8
-184 -28 -250 -40 -16 -3 -46 -8 -68 -10 -22 -3 -78 -12 -125 -20 -47 -8 -102
-17 -124 -21 -21 -3 -48 -7 -59 -10 -12 -2 -39 -6 -62 -9 -22 -3 -47 -8 -55
-10 -8 -2 -31 -7 -50 -10 -90 -14 -304 -58 -390 -80 -107 -27 -419 -129 -462
-151 -15 -8 -29 -14 -30 -14 -13 4 -211 -89 -320 -150 -189 -106 -311 -195
-601 -438 -306 -255 -487 -426 -636 -597 -47 -55 -94 -109 -105 -120 -39 -43
-216 -285 -281 -385 -37 -58 -76 -117 -86 -132 -11 -15 -19 -29 -19 -31 0 -2
-22 -42 -49 -89 -50 -87 -153 -292 -208 -413 -18 -38 -46 -101 -64 -140 -159
-353 -333 -913 -394 -1277 -3 -18 -8 -40 -10 -48 -2 -8 -7 -35 -10 -60 -4 -24
-8 -47 -10 -50 -2 -3 -6 -34 -10 -70 -4 -36 -8 -67 -10 -70 -2 -3 -6 -34 -10
-70 -4 -36 -8 -67 -10 -70 -2 -4 -12 -106 -20 -215 -2 -28 -12 -158 -20 -265
-2 -25 -6 -88 -10 -140 -4 -52 -8 -102 -10 -110 -1 -8 -6 -44 -10 -80 -12
-105 -20 -173 -30 -230 -2 -8 -6 -40 -10 -70 -3 -30 -8 -66 -10 -80 -5 -32
-34 -252 -41 -305 -2 -22 -7 -51 -9 -65 -2 -14 -7 -47 -10 -75 -6 -55 -15
-126 -20 -165 -2 -14 -11 -83 -20 -155 -9 -71 -18 -141 -20 -155 -2 -14 -9
-61 -15 -105 -6 -44 -13 -91 -15 -105 -2 -14 -9 -61 -15 -105 -6 -44 -13 -91
-16 -105 -2 -14 -7 -45 -10 -70 -3 -25 -8 -54 -10 -64 -2 -11 -8 -54 -14 -96
-6 -42 -12 -85 -14 -96 -2 -10 -7 -44 -11 -74 -4 -30 -9 -64 -11 -75 -5 -40
-17 -113 -38 -237 -23 -137 -107 -305 -255 -513 -87 -122 -75 -106 -296 -394
-164 -215 -265 -350 -336 -449 -394 -558 -1289 -1918 -1461 -2222 -14 -25 -53
-92 -85 -150 -159 -278 -390 -765 -600 -1260 -24 -58 -52 -123 -62 -145 -10
-22 -58 -132 -106 -245 -48 -113 -96 -224 -106 -246 -46 -103 -205 -493 -303
-744 -59 -151 -112 -284 -117 -295 -37 -82 -194 -505 -227 -610 -111 -358
-207 -742 -196 -779 9 -28 122 -209 197 -315 47 -65 268 -340 375 -466 10 -11
49 -58 87 -105 38 -47 72 -87 75 -90 3 -3 42 -50 85 -105 44 -55 246 -266 449
-470 l370 -370 12 60 c7 33 15 80 19 105 3 25 15 95 26 155 10 61 22 124 25
140 51 291 85 480 94 520 5 28 12 68 16 90 3 22 10 60 16 85 5 25 12 59 15 75
2 17 22 116 44 220 22 105 41 199 43 210 22 113 181 702 268 990 83 277 213
669 248 750 39 89 52 121 54 130 2 6 7 19 11 30 4 11 23 58 42 105 19 47 40
99 48 115 7 17 34 82 59 145 26 63 51 124 56 135 5 11 21 49 35 85 25 63 34
85 55 133 5 12 61 148 124 302 107 264 236 577 363 885 30 74 66 159 79 188
13 29 24 54 24 57 0 17 111 242 170 345 23 41 54 95 68 120 97 172 260 454
288 497 19 28 34 53 34 56 0 9 180 277 256 379 43 59 106 144 139 190 54 75
182 234 224 278 418 443 507 528 651 624 220 147 537 275 860 349 135 31 191
41 352 62 220 29 609 34 779 11 253 -34 507 -129 784 -294 164 -98 267 -175
475 -356 279 -243 507 -488 749 -804 139 -182 191 -242 326 -377 211 -212 378
-337 510 -381 73 -24 93 -27 240 -27 170 0 206 4 271 26 44 16 146 66 154 76
3 3 23 19 45 36 76 55 210 173 299 261 126 126 202 214 356 414 74 96 146 189
161 205 192 218 294 324 455 472 210 192 384 331 530 421 93 58 311 175 317
170 2 -2 10 2 18 9 31 25 279 109 377 127 165 31 226 36 447 35 234 -1 420
-12 545 -34 14 -3 40 -7 58 -10 78 -12 103 -17 209 -41 135 -30 302 -82 438
-136 114 -45 351 -161 375 -183 9 -8 20 -15 24 -15 55 0 601 -539 799 -787 78
-99 316 -427 395 -546 56 -83 182 -289 235 -382 6 -11 39 -69 74 -129 35 -60
63 -110 63 -112 0 -2 18 -33 40 -69 22 -36 40 -67 40 -69 0 -3 21 -40 46 -83
69 -115 135 -259 274 -598 34 -82 68 -163 75 -180 7 -16 32 -77 55 -135 23
-58 48 -118 55 -135 8 -16 55 -131 105 -255 50 -124 95 -234 100 -245 18 -39
339 -822 413 -1010 137 -344 305 -877 446 -1410 45 -171 123 -490 135 -555 2
-14 14 -70 25 -125 11 -55 22 -113 25 -129 3 -16 10 -54 17 -85 6 -30 12 -64
14 -75 2 -12 10 -57 19 -101 8 -44 17 -91 20 -105 2 -14 11 -63 20 -110 15
-83 17 -97 30 -170 3 -19 19 -110 36 -202 16 -91 32 -188 36 -215 3 -26 8 -51
10 -54 1 -3 6 -27 10 -54 13 -98 -5 -110 319 214 387 385 443 443 550 576 116
144 217 267 230 281 41 43 283 343 338 417 63 86 151 221 195 297 27 49 30 60
22 95 -75 325 -173 678 -240 865 -40 110 -308 803 -335 865 -7 17 -29 71 -48
120 -76 193 -530 1261 -622 1460 -15 33 -42 94 -60 135 -184 425 -470 960
-720 1345 -18 28 -68 106 -112 175 -165 259 -808 1227 -924 1392 -30 43 -92
132 -139 200 -82 118 -416 568 -429 578 -15 11 -293 392 -344 470 -86 134
-158 287 -172 372 -16 93 -35 210 -40 244 -3 23 -8 59 -11 80 -3 22 -7 50 -9
64 -2 14 -5 39 -8 55 -5 30 -15 97 -22 145 -2 14 -6 45 -10 70 -4 25 -8 56
-10 70 -4 30 -16 109 -20 130 -2 8 -6 38 -9 65 -4 28 -13 93 -21 145 -7 52
-17 118 -20 145 -9 70 -13 105 -19 145 -3 19 -10 73 -16 120 -6 47 -12 99 -15
115 -2 17 -7 57 -11 90 -3 33 -8 67 -9 76 -2 9 -6 40 -10 70 -3 30 -8 65 -10
79 -2 14 -9 63 -15 110 -6 47 -13 96 -15 110 -2 14 -6 43 -9 65 -9 71 -37 279
-41 315 -3 19 -7 69 -10 110 -3 41 -7 95 -10 120 -2 25 -6 86 -10 135 -3 50
-8 117 -11 150 -3 33 -7 85 -9 115 -2 30 -7 71 -9 90 -3 19 -8 59 -12 89 -3
30 -7 61 -9 70 -1 9 -6 36 -9 61 -3 25 -8 56 -11 70 -2 13 -7 42 -10 65 -4 22
-17 96 -31 165 -113 560 -275 1028 -543 1570 -282 570 -635 1016 -1151 1454
-63 54 -126 108 -140 120 -14 12 -61 51 -105 86 -44 36 -85 70 -91 75 -6 6
-56 44 -112 85 -240 176 -499 310 -802 413 -180 61 -364 112 -475 131 -16 3
-41 8 -55 11 -51 11 -358 65 -455 81 -16 2 -55 9 -85 14 -30 5 -73 12 -95 15
-22 2 -51 7 -65 9 -27 5 -199 32 -265 41 -22 4 -47 8 -55 10 -8 2 -42 7 -75
11 -33 3 -62 7 -65 9 -3 2 -30 6 -60 10 -30 4 -75 10 -100 15 -25 5 -47 6 -49
4 -3 -2 -6 -111 -7 -242 -1 -130 -5 -505 -9 -832 -3 -327 -8 -761 -10 -965 -2
-203 -7 -615 -10 -915 -3 -300 -8 -716 -10 -925 -6 -620 -16 -1566 -20 -1930
-2 -187 -7 -608 -10 -935 -10 -967 -12 -1100 -17 -1105 -3 -3 -15 46 -27 107
-13 62 -27 127 -32 143 -4 17 -11 46 -14 65 -3 19 -8 42 -10 50 -2 8 -6 26 -9
40 -2 14 -11 57 -20 95 -16 76 -16 -21 -1 1675 3 382 8 913 10 1180 2 267 7
793 10 1170 3 377 8 901 10 1165 4 499 15 1817 18 2153 2 106 0 197 -3 201 -5
8 -75 19 -175 28 -58 5 -882 13 -887 8z m-2613 -8260 c28 -3 104 -15 170 -26
66 -11 134 -22 150 -25 41 -6 283 -70 370 -97 39 -12 72 -22 75 -22 3 -1 12
-5 20 -8 8 -3 51 -18 95 -33 44 -14 109 -37 145 -51 36 -13 66 -24 68 -23 8 2
128 -62 189 -102 40 -27 77 -48 83 -48 5 0 10 -4 10 -8 0 -4 36 -34 81 -66 44
-33 86 -64 92 -70 7 -6 35 -29 62 -51 28 -22 61 -50 75 -62 14 -12 41 -35 60
-52 19 -16 32 -32 29 -36 -4 -3 -81 31 -173 75 -92 44 -169 80 -171 80 -2 0
-43 19 -91 42 -49 23 -94 41 -101 41 -7 0 -13 4 -13 9 0 4 -8 8 -18 8 -10 0
-22 4 -28 9 -10 10 -274 97 -389 129 -93 26 -207 53 -285 67 -14 3 -36 7 -50
10 -37 7 -81 15 -120 21 -19 2 -57 9 -85 14 -57 11 -174 26 -285 37 -90 9
-495 9 -565 0 -27 -4 -75 -10 -105 -13 -167 -17 -487 -89 -642 -144 -67 -23
-370 -152 -478 -203 -128 -60 -231 -107 -235 -107 -3 0 -134 -62 -365 -172
-58 -28 -205 -100 -328 -160 -123 -61 -226 -107 -230 -104 -8 8 -4 11 118 100
58 41 110 79 115 84 18 14 248 175 283 197 9 6 56 36 105 68 49 31 90 57 93
57 2 0 21 10 42 23 65 41 368 198 482 250 388 177 720 289 980 332 19 3 60 10
90 15 30 5 82 12 115 16 33 3 62 7 64 9 6 6 441 -3 496 -10z m6550 0 c44 -6
197 -32 233 -39 124 -25 405 -104 477 -135 11 -5 70 -28 130 -51 61 -24 130
-52 155 -63 25 -10 61 -26 80 -34 19 -9 66 -31 103 -49 37 -19 74 -34 82 -34
7 0 15 -3 17 -8 2 -4 35 -23 73 -42 139 -69 359 -193 447 -251 49 -32 91 -59
93 -59 3 0 35 -22 72 -48 38 -27 115 -82 173 -123 94 -66 130 -92 220 -159 14
-11 34 -26 45 -34 11 -8 17 -17 14 -20 -3 -3 -119 51 -258 119 -138 69 -253
125 -255 125 -2 0 -77 35 -167 79 -90 43 -216 102 -279 131 -63 29 -148 68
-188 86 -41 19 -75 34 -77 34 -2 0 -37 15 -77 34 -250 116 -508 206 -688 241
-8 1 -35 6 -60 11 -25 4 -47 8 -50 9 -11 2 -96 17 -120 20 -14 2 -43 6 -65 9
-214 30 -627 28 -830 -4 -33 -5 -85 -12 -115 -16 -30 -3 -62 -10 -71 -15 -9
-4 -19 -6 -21 -3 -3 2 -36 -2 -75 -10 -38 -8 -82 -17 -98 -20 -25 -5 -54 -10
-150 -30 -59 -13 -225 -60 -330 -94 -167 -55 -200 -68 -328 -126 -44 -20 -81
-36 -83 -36 -2 0 -79 -37 -172 -82 -251 -122 -285 -131 -170 -44 21 16 35 32
32 37 -3 5 -1 8 4 7 5 -2 60 38 123 88 63 50 142 111 177 134 34 24 62 48 62
52 0 4 5 8 12 8 6 0 44 20 84 45 86 54 107 63 289 127 299 104 583 182 745
203 25 3 59 8 75 12 37 7 62 11 145 19 36 3 67 7 69 9 5 6 451 -3 496 -10z"/>
<path d="M6625 10795 c-38 -8 -83 -17 -100 -20 -202 -40 -550 -166 -755 -272
-97 -51 -218 -121 -230 -133 -3 -3 -24 -18 -48 -33 -56 -36 -242 -187 -311
-251 -365 -343 -611 -638 -932 -1117 -78 -117 -269 -425 -269 -434 0 -3 -11
-22 -23 -43 -88 -139 -283 -537 -396 -807 -35 -82 -67 -159 -72 -170 -5 -11
-46 -114 -93 -230 -181 -453 -318 -791 -326 -810 -5 -11 -62 -153 -126 -315
-152 -385 -356 -995 -514 -1538 -39 -134 -93 -314 -120 -400 -50 -160 -66
-214 -125 -427 -33 -120 -84 -323 -91 -360 -1 -11 -5 -31 -8 -45 -20 -89 -30
-144 -41 -210 -4 -25 -9 -53 -10 -62 -2 -9 -7 -46 -10 -83 l-7 -65 48 24 c61
30 207 92 373 158 114 45 462 165 502 173 9 2 75 21 145 43 108 34 387 102
483 118 14 3 34 7 43 10 10 3 30 8 45 10 16 3 66 14 113 24 47 10 101 22 120
25 19 3 53 10 75 15 47 10 116 21 223 35 20 3 53 7 72 10 44 5 116 12 245 22
195 15 863 7 1015 -12 19 -2 71 -7 115 -10 87 -7 130 -12 214 -23 l54 -7 23
-70 c83 -258 106 -331 109 -345 2 -8 13 -42 23 -75 11 -33 36 -112 56 -175 20
-63 89 -286 155 -495 l118 -380 126 -3 126 -3 83 42 c124 62 177 78 255 75
116 -3 251 -87 328 -204 15 -23 30 -40 32 -38 9 9 -28 130 -59 195 -43 91
-134 181 -208 206 -107 36 -232 19 -333 -45 -26 -16 -48 -26 -50 -22 -3 4 -17
50 -31 102 -15 52 -36 124 -47 160 -10 36 -35 119 -53 185 -58 201 -146 504
-177 610 -17 55 -32 107 -34 115 -2 12 -123 430 -180 625 -60 204 -287 989
-295 1020 -5 17 -47 163 -94 325 -48 162 -89 302 -91 310 -2 8 -28 100 -58
203 -30 103 -52 186 -49 183 3 -3 35 -81 72 -173 37 -93 129 -321 205 -508 75
-187 207 -513 292 -725 85 -212 161 -398 168 -415 7 -16 50 -122 95 -235 46
-113 107 -266 137 -340 31 -74 63 -155 73 -180 9 -25 79 -198 155 -385 76
-187 157 -389 181 -449 24 -60 46 -111 48 -113 4 -4 660 653 1546 1547 204
206 567 571 806 811 460 462 446 445 423 519 -6 19 -12 89 -14 155 -6 217 41
351 173 489 98 102 224 150 397 150 185 0 297 -43 407 -155 72 -73 142 -198
153 -274 4 -22 10 -56 14 -76 12 -54 5 -225 -13 -299 -8 -35 -14 -65 -13 -66
1 -2 430 -433 952 -960 523 -526 1149 -1157 1392 -1402 243 -246 444 -444 446
-442 2 3 56 136 120 295 64 160 153 380 198 490 44 110 141 351 215 535 74
184 139 344 143 355 5 11 23 54 39 95 17 41 74 183 127 315 54 132 122 301
151 375 30 74 58 144 63 155 13 30 22 52 186 460 181 448 184 455 190 455 3 0
-2 -17 -10 -37 -8 -21 -28 -87 -45 -148 -17 -60 -42 -146 -55 -190 -43 -145
-67 -230 -71 -245 -3 -16 -5 -22 -84 -290 -28 -96 -53 -182 -55 -190 -2 -8
-35 -125 -75 -260 -100 -346 -95 -329 -145 -500 -24 -85 -82 -285 -129 -445
-46 -159 -130 -450 -186 -645 -56 -195 -122 -422 -147 -505 -24 -82 -46 -157
-48 -165 -8 -35 -64 -222 -67 -226 -2 -2 -24 10 -48 26 -123 82 -282 86 -401
10 -89 -58 -159 -173 -194 -321 -7 -33 -12 -59 -10 -59 2 0 17 23 35 50 68
106 203 196 313 207 73 7 128 -7 252 -68 l102 -49 127 0 c69 0 126 2 126 5 0
3 27 89 59 192 79 249 200 635 323 1028 55 176 100 321 101 321 1 1 35 5 76 8
41 4 77 8 80 10 3 2 53 7 111 11 58 4 112 9 121 10 53 10 327 19 589 19 343 0
487 -7 705 -36 44 -5 94 -11 111 -13 54 -5 167 -28 409 -80 94 -20 179 -39
190 -41 11 -2 72 -15 135 -29 63 -15 126 -29 140 -31 25 -5 192 -56 459 -141
163 -52 376 -133 596 -228 83 -36 153 -65 158 -65 6 0 5 21 -8 115 -29 220
-126 628 -220 935 -25 80 -96 312 -126 410 -16 52 -43 145 -60 205 -69 248
-333 1072 -374 1170 -7 17 -20 53 -30 80 -23 64 -83 221 -100 260 -7 17 -43
107 -80 200 -37 94 -71 179 -75 190 -5 11 -37 90 -70 175 -34 85 -68 169 -75
185 -42 97 -127 305 -209 512 -128 324 -169 416 -307 698 -85 172 -158 311
-216 409 -36 62 -67 114 -87 151 -38 66 -256 398 -330 500 -287 400 -510 655
-797 914 -114 103 -142 127 -194 165 -22 17 -42 33 -45 36 -8 11 -180 125
-235 155 -225 127 -588 270 -785 310 -8 2 -42 10 -75 18 -70 18 -108 25 -188
33 l-59 7 58 -54 c64 -61 186 -186 260 -269 27 -30 51 -57 54 -60 25 -23 141
-176 202 -265 96 -140 294 -470 303 -505 1 -3 17 -36 35 -75 35 -71 44 -145
28 -205 -31 -107 -43 -122 -152 -180 -69 -37 -262 -121 -411 -179 -60 -24
-123 -49 -140 -56 -16 -7 -106 -40 -200 -75 -93 -34 -179 -66 -190 -71 -58
-26 -461 -153 -595 -188 -192 -49 -405 -89 -524 -98 -237 -17 -1158 6 -1182
30 -5 4 22 138 116 582 10 50 21 104 24 120 3 17 10 45 16 64 5 19 8 37 5 39
-2 3 -42 -33 -87 -80 -84 -85 -117 -121 -263 -283 -122 -135 -196 -205 -282
-267 -272 -196 -604 -260 -917 -178 -253 67 -428 189 -682 476 -102 114 -112
125 -216 232 -55 56 -102 101 -105 99 -2 -3 1 -26 8 -53 6 -27 13 -60 15 -74
3 -14 16 -77 30 -140 14 -63 27 -126 30 -140 2 -14 7 -36 10 -50 3 -14 7 -32
9 -40 2 -8 17 -82 34 -163 17 -82 31 -150 31 -150 0 -1 -39 -4 -88 -5 -48 -2
-105 -5 -127 -7 -124 -9 -429 -18 -620 -19 -341 0 -451 9 -688 60 -39 8 -80
17 -89 19 -40 8 -258 68 -318 87 -217 68 -855 300 -992 361 -18 8 -73 32 -123
52 -129 54 -257 119 -293 150 -22 19 -38 46 -52 93 -29 92 -27 136 10 224 25
62 131 259 170 318 5 8 17 29 26 45 64 117 270 407 360 505 17 19 60 67 95
105 35 39 109 114 164 168 l99 97 -34 -1 c-19 0 -66 -7 -105 -14z m-809 -2077
c31 -29 75 -70 98 -92 64 -60 271 -237 376 -321 297 -238 547 -356 860 -405
204 -32 203 -32 360 -47 131 -13 743 -4 865 12 17 2 57 6 90 10 50 4 153 20
260 40 92 16 282 60 383 88 67 18 122 30 122 26 0 -14 -213 -133 -315 -175
-33 -14 -78 -33 -100 -43 -58 -27 -316 -109 -415 -132 -121 -29 -124 -30 -280
-54 -67 -10 -313 -27 -405 -27 -34 0 -296 13 -325 16 -19 3 -71 7 -115 11
-132 10 -258 33 -378 68 -31 10 -92 34 -135 54 -42 20 -79 37 -82 38 -18 5
-86 50 -173 114 -128 93 -262 228 -402 401 -59 74 -112 134 -116 133 -5 -2 -8
1 -6 5 2 9 -10 27 -103 146 -151 193 -169 231 -64 134z m9104 36 c0 -11 -182
-251 -248 -329 -9 -11 -33 -40 -52 -65 -19 -25 -44 -56 -55 -68 -24 -29 -38
-45 -90 -108 -217 -262 -520 -459 -800 -519 -99 -22 -106 -23 -182 -30 -37 -4
-79 -8 -92 -10 -164 -27 -691 -26 -846 0 -40 7 -82 13 -130 21 -130 19 -441
114 -620 188 -108 45 -304 147 -333 174 -7 6 -18 12 -23 12 -5 0 -9 4 -9 9 0
5 24 3 53 -5 28 -8 59 -17 67 -19 43 -12 179 -46 205 -51 160 -33 321 -63 364
-68 25 -3 57 -8 71 -10 186 -32 928 -40 1076 -12 11 2 45 7 75 10 30 3 68 8
84 11 135 22 162 27 175 32 8 3 29 7 45 8 82 9 305 98 450 180 79 45 302 210
391 290 7 5 31 26 54 45 23 19 53 44 66 55 98 86 158 139 218 197 66 63 86 77
86 62z m-4424 -588 c121 -19 226 -62 367 -148 113 -69 327 -220 327 -230 0 -4
-24 2 -52 14 -59 23 -474 137 -613 168 -88 19 -255 22 -325 6 -14 -3 -79 -20
-145 -36 -66 -17 -141 -36 -167 -42 -27 -6 -48 -15 -48 -20 0 -5 -4 -6 -10 -3
-5 3 -34 -1 -63 -10 -30 -9 -63 -17 -73 -19 -11 -2 -50 -16 -89 -30 -111 -40
-103 -26 45 75 41 28 74 55 73 59 -1 3 3 7 10 7 7 0 48 23 92 50 157 98 294
152 420 165 40 4 212 0 251 -6z m69 -456 c58 -20 167 -72 189 -91 6 -6 47 -33
91 -62 89 -58 121 -84 113 -92 -3 -3 -23 1 -44 9 -36 13 -171 52 -212 61 -9 2
-62 15 -117 30 -134 36 -249 43 -351 20 -94 -20 -387 -99 -428 -115 -29 -11
-50 -5 -30 8 70 48 104 74 104 81 0 4 6 8 13 8 6 0 55 27 107 60 84 53 179 92
260 107 59 11 246 -4 305 -24z m4325 -327 c0 -3 -96 -100 -212 -215 -117 -115
-301 -297 -409 -404 -108 -107 -202 -194 -209 -194 -7 0 -121 27 -254 59 -274
68 -473 110 -601 127 -16 2 -46 6 -65 9 -114 15 -209 20 -410 20 -285 0 -318
-5 -645 -90 -187 -49 -298 -83 -275 -85 45 -4 223 -58 316 -96 160 -64 232
-103 349 -188 94 -69 105 -78 202 -174 203 -203 361 -466 508 -847 15 -38 31
-79 35 -90 59 -143 123 -395 165 -645 8 -47 17 -96 19 -110 3 -14 7 -43 10
-65 2 -22 11 -94 20 -160 8 -66 18 -147 21 -180 4 -33 8 -76 10 -95 2 -19 7
-75 11 -125 3 -49 8 -100 9 -112 1 -13 -2 -23 -6 -23 -5 0 -9 2 -9 5 0 7 -116
455 -162 625 -11 41 -21 82 -23 90 -2 8 -15 59 -29 112 -69 266 -99 376 -111
403 -7 17 -29 65 -49 108 -20 44 -36 81 -36 84 0 13 -193 398 -235 468 -44 74
-134 212 -155 239 -6 6 -31 38 -57 71 -77 96 -169 181 -268 247 -54 37 -426
213 -685 326 -185 80 -199 89 -213 125 -12 31 11 65 70 105 77 52 244 121 378
158 6 2 51 15 100 29 50 14 103 28 119 31 16 2 32 7 36 9 3 2 29 7 56 11 27 3
52 8 55 10 3 1 28 6 55 9 27 4 56 8 64 10 8 2 49 7 90 10 41 4 95 8 120 11 51
4 378 4 455 0 107 -7 214 -18 295 -32 47 -8 99 -17 115 -20 17 -3 50 -10 75
-15 25 -6 56 -13 70 -15 22 -4 58 -12 85 -20 6 -2 21 -5 35 -8 14 -3 91 -24
172 -46 80 -22 153 -40 160 -40 8 0 73 43 144 95 71 52 156 114 189 138 283
206 362 263 373 274 7 7 17 13 21 13 4 0 16 8 27 18 43 40 84 62 84 45z
m-8671 -297 c341 -248 407 -293 425 -285 12 4 80 24 151 43 362 96 578 136
820 151 86 6 403 6 465 1 25 -2 79 -7 120 -11 41 -3 82 -8 90 -10 8 -2 35 -7
60 -10 25 -2 56 -7 70 -10 14 -3 41 -8 60 -11 143 -23 454 -121 585 -184 102
-50 144 -79 162 -115 20 -38 -18 -87 -87 -114 -132 -52 -764 -345 -780 -361
-3 -3 -31 -22 -64 -43 -63 -42 -190 -164 -246 -237 -19 -25 -37 -47 -40 -50
-15 -15 -146 -221 -182 -287 -114 -211 -311 -635 -322 -693 -2 -14 -17 -70
-31 -125 -15 -55 -29 -107 -30 -115 -2 -8 -4 -15 -5 -15 -1 0 -3 -7 -5 -15 -1
-8 -22 -87 -45 -175 -23 -88 -55 -212 -71 -275 -17 -63 -42 -158 -56 -210 -14
-52 -26 -99 -27 -105 -25 -101 -27 -105 -36 -105 -5 0 -8 19 -6 43 2 23 7 76
10 117 6 72 11 121 21 205 2 22 7 65 10 95 3 30 13 102 21 160 8 58 17 121 20
140 3 19 7 46 10 60 2 14 6 34 8 45 2 11 7 38 11 60 4 22 9 51 12 65 14 79 68
289 96 375 17 55 32 105 32 110 0 6 3 12 6 15 3 3 18 39 34 80 15 41 37 95 48
120 10 25 26 61 34 80 20 45 104 212 137 270 14 25 33 59 42 75 9 17 20 32 23
35 4 3 17 21 29 40 12 19 33 48 47 64 14 16 25 33 25 38 0 4 57 66 128 136
224 224 438 347 760 434 l122 34 -47 13 c-27 7 -95 27 -153 43 -153 43 -382
95 -479 109 -79 11 -518 8 -581 -5 -14 -2 -45 -7 -70 -10 -25 -4 -65 -9 -90
-12 -103 -14 -400 -77 -617 -131 l-232 -58 -406 400 c-223 220 -405 403 -405
408 0 4 3 7 8 7 4 0 189 -132 411 -294z"/>
<path d="M10048 4892 c-16 -2 -28 -9 -29 -15 0 -7 -1 -555 -2 -1219 -1 -798 1
-1209 8 -1211 6 -2 147 -3 315 -3 l305 1 0 1223 c0 1081 -2 1222 -15 1223 -76
2 -561 3 -582 1z"/>
<path d="M11043 3564 l0 -1119 246 1 c135 1 249 2 252 3 4 0 6 389 6 864 l0
863 -252 253 -252 254 0 -1119z"/>
<path d="M9376 4423 l-246 -248 0 -865 0 -865 248 1 c136 1 249 2 252 3 7 2 6
2221 -1 2221 -4 0 -117 -111 -253 -247z"/>
<path d="M8455 3606 c-127 -128 -238 -242 -249 -254 -17 -20 -18 -44 -18 -429
0 -224 1 -424 1 -443 l1 -35 250 0 250 0 1 35 c2 154 0 1352 -3 1355 -2 2
-107 -101 -233 -229z"/>
<path d="M11983 3142 l0 -697 253 0 254 0 0 445 0 445 -251 253 c-138 138
-252 252 -253 252 -2 0 -3 -314 -3 -698z"/>
<path d="M7480 2213 c0 -6 16 -71 36 -145 19 -73 38 -144 40 -157 3 -14 7 -28
10 -32 2 -4 1231 -6 2730 -6 l2727 2 48 165 c27 90 49 169 49 175 0 7 -897 10
-2820 10 -2156 0 -2820 -3 -2820 -12z"/>
<path d="M7650 1688 c0 -3 37 -25 83 -48 77 -40 130 -68 390 -204 56 -29 163
-85 237 -123 305 -159 389 -202 470 -245 47 -25 171 -89 275 -143 105 -54 222
-114 260 -135 39 -20 142 -74 230 -120 88 -46 192 -100 230 -120 39 -20 151
-79 250 -130 99 -51 195 -102 213 -112 l33 -20 92 47 c51 26 115 60 142 75 28
15 138 73 245 129 107 56 202 106 210 111 8 5 51 27 95 50 44 23 112 59 150
80 39 20 115 61 170 90 55 29 132 70 170 90 39 21 115 61 170 90 55 29 132 69
170 90 39 20 120 63 180 95 61 32 137 72 170 90 33 18 114 61 180 96 66 34
165 87 220 116 55 29 141 74 192 100 51 26 90 49 88 51 -7 7 -5315 7 -5315 0z"/>
</g>
</svg>
