<?xml version="1.0" standalone="no"?>
<!DOCTYPE svg PUBLIC "-//W3C//DTD SVG 20010904//EN"
 "http://www.w3.org/TR/2001/REC-SVG-20010904/DTD/svg10.dtd">
<svg version="1.0" xmlns="http://www.w3.org/2000/svg"
 width="104.000000pt" height="104.000000pt" viewBox="0 0 104.000000 104.000000"
 preserveAspectRatio="xMidYMid meet">
<metadata>
Created by potrace 1.11, written by Peter Selinger 2001-2013
</metadata>
<g transform="translate(0.000000,104.000000) scale(0.100000,-0.100000)"
fill="#000000" stroke="none">
<path d="M190 530 l0 -290 75 0 75 0 2 202 3 202 61 -144 60 -145 50 -3 49 -3
65 153 65 153 3 -208 2 -207 70 0 70 0 0 290 0 291 -97 -3 -96 -3 -61 -142
c-34 -78 -64 -144 -67 -148 -3 -3 -35 62 -70 145 l-63 150 -98 0 -98 0 0 -290z"/>
</g>
</svg>
