<?xml version="1.0" standalone="no"?>
<!DOCTYPE svg PUBLIC "-//W3C//DTD SVG 20010904//EN"
 "http://www.w3.org/TR/2001/REC-SVG-20010904/DTD/svg10.dtd">
<svg version="1.0" xmlns="http://www.w3.org/2000/svg"
 width="256.000000pt" height="256.000000pt" viewBox="0 0 256.000000 256.000000"
 preserveAspectRatio="xMidYMid meet">
<metadata>
Created by potrace 1.11, written by Peter Selinger 2001-2013
</metadata>
<g transform="translate(0.000000,256.000000) scale(0.100000,-0.100000)"
fill="#000000" stroke="none">
<path d="M702 1988 c-15 -15 -15 -51 0 -66 7 -7 36 -12 65 -12 l53 0 42 -84
42 -84 -50 -76 c-35 -54 -53 -74 -64 -70 -126 51 -242 66 -353 44 -206 -40
-372 -203 -422 -413 -69 -291 124 -589 420 -652 88 -18 132 -18 220 0 207 44
375 208 421 414 l16 71 65 0 c35 0 62 -3 60 -7 -3 -5 -15 -41 -26 -80 -19 -63
-25 -73 -44 -73 -29 0 -47 -18 -47 -45 0 -37 19 -45 113 -45 98 0 127 10 127
43 0 31 -18 47 -52 47 -15 0 -28 1 -28 3 0 1 13 44 29 94 26 82 51 126 212
374 l183 282 20 -42 20 -41 -24 -17 c-52 -34 -136 -132 -167 -194 -112 -222
-74 -462 101 -634 83 -82 145 -118 252 -145 92 -24 145 -25 239 -5 210 44 387
223 424 429 48 264 -98 522 -348 614 -110 41 -281 40 -381 -2 -11 -4 -34 31
-93 144 l-78 150 121 0 c118 0 121 0 132 -25 15 -33 -4 -55 -49 -55 -46 0 -73
-16 -73 -43 0 -35 19 -47 73 -47 87 0 142 54 140 138 -1 43 -29 81 -74 105
-29 15 -58 17 -198 15 -152 -3 -165 -4 -177 -24 -12 -18 -10 -28 23 -95 21
-40 39 -77 41 -81 2 -5 -138 -8 -312 -8 l-316 0 -30 60 -30 60 58 0 c32 0 63
5 70 12 18 18 14 56 -7 68 -29 15 -324 13 -339 -2z m895 -302 c-10 -27 -306
-477 -313 -477 -7 -1 -253 469 -254 484 0 4 129 7 286 7 245 0 285 -2 281 -14z
m-518 -285 c66 -131 121 -241 121 -245 0 -3 -24 -6 -53 -6 l-53 0 -17 73 c-23
100 -70 188 -139 259 l-58 61 31 48 c17 27 34 49 39 49 4 0 62 -107 129 -239z
m-403 144 c87 -26 89 -16 -31 -202 -60 -92 -118 -185 -129 -205 -20 -36 -20
-37 -2 -57 18 -20 29 -21 253 -21 265 0 246 8 212 -92 -52 -156 -166 -261
-326 -303 -207 -54 -425 51 -519 250 -117 245 9 536 271 627 63 22 203 24 271
3z m1535 -27 c121 -60 211 -169 243 -293 87 -330 -203 -634 -536 -564 -208 44
-358 230 -358 443 0 125 39 225 123 314 85 89 72 98 188 -128 108 -211 129
-241 156 -224 42 26 39 35 -70 249 -59 114 -107 211 -107 215 0 17 80 29 181
27 99 -2 110 -4 180 -39z m-1327 -108 c26 -28 58 -74 71 -103 26 -57 50 -145
43 -153 -3 -2 -87 -3 -187 -2 l-182 3 98 152 c54 84 101 153 104 153 4 0 27
-23 53 -50z"/>
</g>
</svg>
