<?xml version="1.0" standalone="no"?>
<!DOCTYPE svg PUBLIC "-//W3C//DTD SVG 20010904//EN"
 "http://www.w3.org/TR/2001/REC-SVG-20010904/DTD/svg10.dtd">
<svg version="1.0" xmlns="http://www.w3.org/2000/svg"
 width="108.000000pt" height="108.000000pt" viewBox="0 0 108.000000 108.000000"
 preserveAspectRatio="xMidYMid meet">
<metadata>
Created by potrace 1.11, written by Peter Selinger 2001-2013
</metadata>
<g transform="translate(0.000000,108.000000) scale(0.100000,-0.100000)"
fill="#000000" stroke="none">
<path d="M444 981 c-88 -21 -182 -89 -232 -168 -131 -206 -46 -478 176 -569
31 -13 64 -23 72 -23 8 0 -9 9 -38 20 -61 24 -62 45 0 23 22 -7 48 -14 57 -13
9 0 -2 6 -24 13 -33 11 -102 42 -113 51 -6 5 50 130 62 137 6 4 72 8 146 9 93
1 121 4 90 9 -30 5 -36 7 -17 8 15 1 27 7 27 12 0 6 -45 10 -116 10 -89 0
-115 3 -111 13 22 56 110 253 116 259 3 3 33 -56 66 -133 33 -76 64 -139 68
-139 4 0 3 9 -3 21 -7 11 -9 28 -5 37 5 12 16 -2 41 -53 52 -107 37 -67 -55
149 -115 269 -104 271 -240 -41 -57 -131 -107 -242 -111 -247 -5 -4 -22 11
-39 35 -72 99 -81 245 -21 357 38 71 77 110 153 149 46 25 63 28 147 28 76 0
104 -4 141 -21 89 -41 164 -128 194 -227 8 -23 14 -35 14 -26 1 9 -6 35 -13
57 -8 23 -11 44 -6 47 7 4 22 -27 44 -95 3 -10 5 -9 5 5 1 32 -43 130 -79 176
-85 107 -256 163 -396 130z"/>
<path d="M921 614 c0 -11 3 -14 6 -6 3 7 2 16 -1 19 -3 4 -6 -2 -5 -13z"/>
<path d="M700 425 c0 -5 5 -17 10 -25 5 -8 10 -10 10 -5 0 6 -5 17 -10 25 -5
8 -10 11 -10 5z"/>
<path d="M518 213 c7 -3 16 -2 19 1 4 3 -2 6 -13 5 -11 0 -14 -3 -6 -6z"/>
</g>
</svg>
