<?xml version="1.0" standalone="no"?>
<!DOCTYPE svg PUBLIC "-//W3C//DTD SVG 20010904//EN"
 "http://www.w3.org/TR/2001/REC-SVG-20010904/DTD/svg10.dtd">
<svg version="1.0" xmlns="http://www.w3.org/2000/svg"
 width="167.000000pt" height="167.000000pt" viewBox="0 0 167.000000 167.000000"
 preserveAspectRatio="xMidYMid meet">
<metadata>
Created by potrace 1.11, written by Peter Selinger 2001-2013
</metadata>
<g transform="translate(0.000000,167.000000) scale(0.100000,-0.100000)"
fill="#000000" stroke="none">
<path d="M1510 1650 c-19 -4 -51 -11 -71 -14 -69 -12 -91 -50 -114 -196 -3
-19 -12 -69 -20 -110 -8 -41 -17 -87 -19 -103 -3 -15 -10 -55 -16 -90 -7 -34
-13 -71 -15 -82 -1 -11 -13 -76 -25 -145 -12 -69 -24 -134 -25 -145 -2 -11
-12 -67 -23 -125 -11 -58 -26 -135 -32 -172 -7 -39 -17 -68 -24 -68 -7 0 -55
148 -115 353 -57 193 -110 360 -119 370 -20 22 -42 22 -149 -4 -48 -11 -96
-21 -106 -22 -31 -2 -54 -40 -81 -132 -15 -49 -29 -97 -31 -105 -2 -12 -55
-192 -131 -453 -6 -21 -26 -18 -30 4 -2 12 -11 55 -39 199 -3 14 -10 50 -16
80 -6 30 -12 62 -14 70 -2 8 -4 24 -4 35 -2 42 -11 44 -115 24 -54 -10 -101
-21 -103 -23 -4 -4 16 -108 47 -241 12 -52 99 -464 106 -501 3 -16 7 -31 10
-33 9 -9 275 -7 280 1 4 7 63 211 79 278 3 8 23 80 45 160 23 80 43 154 45
165 3 11 15 56 28 100 33 117 47 112 86 -27 18 -62 34 -121 36 -131 6 -25 55
-205 70 -252 7 -22 27 -96 45 -165 19 -69 35 -127 37 -130 8 -10 283 -6 284 5
0 5 2 17 4 25 6 29 47 235 51 260 2 14 9 48 14 75 5 28 11 61 14 75 2 14 20
111 40 215 20 105 39 204 41 220 3 17 10 53 15 80 13 63 14 67 45 238 15 78
28 144 30 147 2 3 6 25 9 50 4 25 8 52 10 60 1 8 6 33 11 55 11 56 13 66 21
103 7 36 2 37 -66 22z"/>
</g>
</svg>
