<?xml version="1.0" standalone="no"?>
<!DOCTYPE svg PUBLIC "-//W3C//DTD SVG 20010904//EN"
 "http://www.w3.org/TR/2001/REC-SVG-20010904/DTD/svg10.dtd">
<svg version="1.0" xmlns="http://www.w3.org/2000/svg"
 width="128.000000pt" height="128.000000pt" viewBox="0 0 128.000000 128.000000"
 preserveAspectRatio="xMidYMid meet">
<metadata>
Created by potrace 1.11, written by Peter Selinger 2001-2013
</metadata>
<g transform="translate(0.000000,128.000000) scale(0.100000,-0.100000)"
fill="#000000" stroke="none">
<path d="M500 1264 c-234 -50 -436 -254 -485 -489 -80 -385 198 -750 589 -772
186 -10 353 54 486 187 253 252 253 647 0 901 -155 156 -374 220 -590 173z
m283 -696 l-258 -258 -142 142 -143 142 42 43 c23 24 47 43 52 43 6 0 51 -40
101 -90 l90 -90 210 210 210 210 47 -47 48 -48 -257 -257z"/>
</g>
</svg>
