<?xml version="1.0" standalone="no"?>
<!DOCTYPE svg PUBLIC "-//W3C//DTD SVG 20010904//EN"
 "http://www.w3.org/TR/2001/REC-SVG-20010904/DTD/svg10.dtd">
<svg version="1.0" xmlns="http://www.w3.org/2000/svg"
 width="480.000000pt" height="480.000000pt" viewBox="0 0 480.000000 480.000000"
 preserveAspectRatio="xMidYMid meet">
<metadata>
Created by potrace 1.11, written by Peter Selinger 2001-2013
</metadata>
<g transform="translate(0.000000,480.000000) scale(0.100000,-0.100000)"
fill="#000000" stroke="none">
<path d="M2341 4774 l-31 -26 0 -283 0 -283 31 -26 c17 -15 43 -26 59 -26 16
0 42 11 59 26 l31 26 0 283 0 283 -31 26 c-17 15 -43 26 -59 26 -16 0 -42 -11
-59 -26z"/>
<path d="M1553 4444 c-37 -18 -57 -61 -49 -102 5 -20 66 -88 199 -220 182
-181 195 -192 231 -192 28 0 45 7 67 29 38 38 38 76 0 127 -47 64 -344 352
-374 363 -35 14 -36 14 -74 -5z"/>
<path d="M3155 4450 c-11 -4 -105 -94 -210 -199 -185 -186 -190 -192 -190
-232 0 -53 38 -89 93 -89 34 0 49 13 234 198 177 177 198 201 198 230 0 46
-16 71 -55 88 -39 16 -42 16 -70 4z"/>
<path d="M913 3667 c-44 -16 -864 -944 -877 -992 -7 -26 -5 -39 10 -62 27 -42
2281 -2579 2307 -2598 28 -19 67 -19 94 0 26 19 2279 2556 2307 2598 15 23 17
36 10 62 -13 48 -833 976 -877 992 -46 17 -2928 17 -2974 0z m947 -512 c-184
-184 -337 -331 -341 -327 -3 4 -91 144 -194 312 -104 168 -195 315 -203 328
l-14 22 543 0 544 0 -335 -335z m1818 313 c-8 -13 -99 -160 -203 -328 -103
-168 -191 -308 -194 -312 -4 -4 -157 143 -341 327 l-335 335 544 0 543 0 -14
-22z m-939 -380 l335 -338 -674 0 -674 0 335 339 c184 186 336 338 339 337 3
0 155 -153 339 -338z m-1595 -12 c109 -175 195 -320 193 -322 -2 -2 -228 -3
-502 -2 l-498 3 294 332 c228 259 296 330 305 320 6 -6 100 -155 208 -331z
m3041 -6 l278 -315 -498 -3 c-274 -1 -500 0 -502 2 -3 3 234 391 381 625 27
42 28 43 46 25 10 -11 143 -161 295 -334z m-2363 -1552 c207 -573 376 -1044
374 -1046 -2 -1 -406 451 -897 1005 -492 554 -909 1025 -928 1045 l-33 38 553
0 554 0 377 -1042z m2611 1010 c-16 -18 -420 -474 -898 -1013 -477 -539 -883
-996 -902 -1015 l-34 -35 30 80 c16 44 138 374 270 733 177 477 240 659 235
677 -3 14 -20 37 -37 51 -25 21 -38 25 -66 20 -20 -3 -45 -16 -56 -29 -11 -13
-144 -359 -295 -770 -151 -410 -278 -743 -282 -739 -8 8 -748 2049 -748 2063
0 5 542 9 1407 9 l1407 0 -31 -32z"/>
<path d="M3117 2364 c-73 -40 -55 -154 27 -170 100 -18 151 101 70 165 -31 25
-58 26 -97 5z"/>
</g>
</svg>
